<svg version="1.0" width="60" height="60" viewBox="0 0 1800 1824" xmlns="http://www.w3.org/2000/svg"><path d="M893 1.8c0 2.4-49.1 50-55.4 53.6-5.3 3.1-27.5 24.8-51.3 50.2-11.4 12.2-15.4 17.1-16.2 20-.8 2.9-4.4 7.5-14.2 17.9-15.9 17-23.9 26.7-23.9 28.9 0 .9-.7 3.1-1.6 4.7-2.9 5.7-5.7 8.4-49.2 47.3-1.8 1.6-4.3 3.7-5.6 4.5-12.8 8.5-23.4 18.7-36.6 35.1-1.9 2.4-5.4 6.5-7.7 9.2-2.4 2.7-4.3 5.2-4.3 5.6 0 1.1-18.1 19.4-31.9 32.2-6.8 6.3-17 16.1-22.7 21.7L562.1 343l-4.4-.6c-4.4-.6-4.5-.6-5.7 3.1-.7 2-1 5.4-.6 7.4.7 4.6-1.5 8.5-7.5 13.2-2.3 1.9-7.2 6.5-10.8 10.2-3.6 3.8-8.5 8-10.8 9.4-2.6 1.5-7.5 6.4-12.1 12.2-4.3 5.3-10.5 13-13.8 17.1-3.3 4.1-7.5 10-9.4 13-4.3 7.2-23.2 25.9-29.7 29.4-4.1 2.3-5.7 4-9 10-2.3 3.9-5.8 9.5-7.9 12.4-3.5 4.6-4.3 5.2-7.6 5.2-2 0-4.9.5-6.4 1.2-2.2 1-16.5 18.1-27.7 33.1-1.6 2.1-4.6 4.9-6.7 6.2-2.2 1.4-5.7 4.8-7.8 7.7-5.8 7.7-12.8 14.7-20.3 20-8.4 6-19 15.8-52.9 49.2-28.1 27.7-53.7 52-66.9 63.6-4.5 4-7.9 7.9-8.8 10.2-.9 2.3-3.3 5-6.1 7.1-2.6 1.9-7.8 6.3-11.7 9.9-3.8 3.6-8.9 7.5-11.3 8.7-5.3 2.7-33.4 29.2-40.3 37.9-2.8 3.5-6.2 6.8-7.7 7.5-5.2 2.2-12.9 7.6-15.6 10.7-5.9 7.1-7.8 11.7-7.8 18.6l.1 6.6-5.6 5.1c-3 2.9-6.6 5.8-7.9 6.5-1.5.8-2.8 2.7-3.5 5.5-1.1 4.5-2.6 5.7-14.4 12.4-7.7 4.4-26.8 23.2-39 38.4-5.2 6.4-18.7 21.1-30.2 32.6-23.5 23.6-26.4 27.2-26.5 33.2 0 5 .7 6.1 11.7 18.1 4.8 5.2 11.5 12.8 14.8 16.9 7.1 8.6 36.3 38.3 39.2 39.8 1.1.6 3.6 1.3 5.7 1.7 4 .7 7.9 4.8 18.9 19.7 9.1 12.4 16 20 21.5 23.7 5.6 3.8 10.7 10.9 14.3 19.7 1.3 3.3 3.3 7.3 4.4 8.8 1.1 1.6 2.8 5.6 3.8 8.9 3.2 10.1 10.2 17.7 15.1 16.5 5-1.3 10.3 4.5 9.2 10.1-.4 2.2.3 3.8 3.8 8.1 4 4.9 19.7 18.5 26.4 22.7 4 2.5 22.9 18.9 25.2 21.9 2.1 2.7 11 8.1 14.7 9.1 2.6.6 12.8 11.8 22.1 24.1 9.2 12.2 29 31.2 53 50.8 2.7 2.2 6.4 5.4 8.4 7.1 1.9 1.7 6.3 5.2 9.8 7.8 4.4 3.4 8 7.3 11.8 13.1 5.9 9 14.7 17.9 35.4 35.6 17.4 15 24.8 22.8 25.7 27.1.5 2.5 4.2 6.9 16.1 18.8 8.5 8.5 17.1 17.5 19.1 20s7.4 8.1 12.1 12.4c7.8 7.2 10.2 9 19.8 15 1.9 1.2 6.2 5.8 9.5 10.2 10.1 13.3 31.2 34.3 41.7 41.4 1.9 1.3 4.9 3.5 6.7 4.9 1.7 1.4 5 4.1 7.2 5.9 2.3 1.8 4.8 4.9 5.6 6.8.8 1.9 3.8 6 6.8 9.2 2.9 3.1 10.9 12.2 17.7 20.2 6.8 8 26.9 29.1 44.6 47 17.7 17.9 38.8 40.1 46.9 49.5 27.7 32 43.3 46.5 50 46.5 1.1 0 4.5 1.9 7.5 4.1 3 2.3 7.2 5 9.3 5.9 3.6 1.6 4.2 1.6 7.8.2l3.9-1.5 5.7 3.9c6.4 4.4 8.3 7.9 9.1 16.7.5 5.6.6 5.9 11.2 17.5 5.8 6.4 12.8 14.6 15.4 18.2 2.7 3.6 13.9 15.7 24.9 27 11.1 11.3 24.4 25.1 29.6 30.5 9.8 10.3 43.5 45.8 52.8 55.5 3.1 3.3 5.3 6.4 5.3 7.7 0 2.2.4 2.3 8 2.3 7.1 0 8-.2 8-1.8 0-1.2 11.5-13 28.8-29.7 28.2-27.3 34.2-34.2 34.2-39.5 0-3.7 9.2-12.4 15.5-14.7 4.4-1.6 5.9-3 11.7-10.8 5.5-7.3 7.5-9.2 10.7-10.3 3.3-1.1 5.2-3 10.5-10.1 7.9-10.6 17.3-19.7 24.6-23.8 3-1.8 9.8-7.2 15-12.1 8.6-8.1 9.7-9.6 11.9-15.8 3.4-9.7 7.4-14.6 20.9-26.4 16.2-14.1 88.2-85.9 96.4-96.1 3.7-4.6 10.9-12.7 16-17.9 10.8-11 15.8-17.8 15.8-21.5 0-4 5-8.5 9.3-8.5 4.2 0 10.8-4.2 21.6-13.8 4.2-3.8 9-7.8 10.6-9.1 1.7-1.2 5.1-3.8 7.7-5.7 2.6-1.9 9.3-8.8 15-15.2 5.7-6.4 11.2-12.6 12.3-13.8 1.2-1.2 3.6-4.4 5.4-7.1 2.4-3.6 5.1-5.9 9.8-8.4 5-2.7 8.8-6.1 18.1-16.3 6.4-7 13.8-14.7 16.3-17 9.7-8.8 51-47.6 61.8-58.1 9.6-9.3 11.8-12.1 14.9-18.5 3.2-6.8 7.3-11.9 9.6-12 2 0 14.3-8.1 17.2-11.2 1.7-1.8 4.4-5.6 5.9-8.3 5.6-9.8 13.4-19.1 24.1-29 6-5.4 15.9-14.7 21.9-20.6 6.1-5.9 15.1-14.7 20.1-19.6 5.1-4.8 18.1-18 29-29.3 26.4-27.3 66.4-67.7 81-82 13.3-13 47.4-43.5 57.5-51.6 7.7-6.1 12.7-11.8 13.6-15.4 1.6-6.4 5.3-12.8 9-15.5 2.1-1.6 5.5-4.2 7.5-5.9 2-1.7 5.8-4.7 8.4-6.6 6.1-4.6 12-10.5 16.9-17 2.2-2.9 7.9-9.3 12.8-14.2 8.8-9 10-11.3 7-14.3-2-2.1-3.9-1.8-21.6 4-13.6 4.4-13.8 4.5-20 10.8-6 6-11.9 10.9-23.1 18.9-7.7 5.5-19.7 16.6-25.7 23.8-3 3.5-8.5 9.6-12.4 13.5-3.8 3.9-9.9 10.2-13.5 13.9-3.5 3.8-8 8-10 9.4-1.9 1.4-10.9 9.9-20 18.8-17.8 17.4-30.2 28.9-59 54.4-22.3 19.8-22 19.5-22 23.6 0 2.6-.9 4-4.2 6.9-2.4 2.1-5.2 4.1-6.3 4.7-1.1.5-3.5 2.9-5.3 5.3-4.4 5.8-37.5 38.4-47.5 46.9-4.3 3.6-8.4 6.6-9.1 6.6-2.3 0-6.6 4.1-8.7 8.3-1.2 2.2-4.2 6.3-6.8 9.1-2.6 2.8-5.9 6.8-7.5 8.9-2.8 3.8-9.8 7.7-16.5 9.2-3.6.8-15 12.1-23.2 23-6 7.9-12.8 15.2-52.4 55.5-45.5 46.3-62.4 65-67.3 74.5-2.5 4.8-9.3 12-22.2 23.4-13.7 12-27.3 25.5-33.8 33.6-11.7 14.2-15.2 17.4-23.7 21.4-6.5 3.1-9.1 5.1-13.6 10.2-7.1 8.2-12.9 17-15.3 23.3-1.3 3.5-4.1 7.1-9 12-4 3.9-9.4 10.4-12.1 14.5-6.3 9.3-8 10.4-15.7 10.4-6-.1-6.2 0-11.6 5.1-6.2 5.8-18.7 18.7-25.4 26.1-5 5.6-8 12.6-7.1 16.7.4 2-.2 3.6-2.1 5.8-1.4 1.8-2.6 3.6-2.6 4 0 1.1-12.5 13.4-17.1 17-1.8 1.4-6 3.9-9.4 5.6-14.9 7.6-18.3 9.9-34.5 22.8-7 5.6-36.6 36.7-37.4 39.4-.4 1.1-1.8 2.7-3.1 3.6-3.4 2.3-5.4 7.3-4.3 11.1.7 2.5.3 3.7-2.7 8-7.8 11.2-14 15.6-29 20.2-8.9 2.7-11.3 4.1-16.7 10-10.3 11.2-15.7 16-22.7 20.3-3.9 2.3-8.5 6-10.2 8.2-2.5 3-3.7 3.8-5.8 3.6-2.1-.2-2.9-1.2-4.1-4.8-.8-2.5-3.5-8.5-6-13.5-3.8-7.6-5.4-9.7-10.9-14-9.5-7.5-17.7-16-22.6-23.4-4.5-6.8-11.2-12.1-15.3-12.1-1.2 0-4.4-2-7.2-4.5s-6.6-5.1-8.5-5.9c-4.6-2-11.8-9.4-14.8-15.3-2.7-5.2-13-14.3-16.4-14.3-5.7-.1-15-9.8-15.2-16-.1-1.4-1.1-4.1-2.4-6.1-2.4-4-31.9-33-34.5-34.1-1-.4-3.1-.7-4.7-.7-2.4-.1-4.7-1.6-10.1-6.8-3.8-3.8-7.6-8.1-8.4-9.6-1.2-2.5-1.2-3.2.4-6.2 2.1-3.9 2.2-3.6-4.9-11.1-2.2-2.2-5.1-4.5-6.5-4.9-4.4-1.4-26.4-18.5-29.5-22.9-1.7-2.4-5-6.5-7.4-9.1-3.4-3.7-4.2-5.1-3.7-7.1.6-2.1-.6-3.7-8.1-11.2-5.6-5.6-10.1-11-12.3-15.2-3.8-7-13.5-17.3-23.9-25.5-12.8-9.9-28.7-24.3-31.5-28.4-1.6-2.3-5.5-5.7-8.7-7.6-3.1-2-7.2-5.2-9-7.3-15.3-17.6-36.5-39.5-51-52.9-3.5-3.2-7.2-8-9.8-12.7-4.5-8-5.2-8.4-10.7-6.4-3.1 1.1-3.6.9-8.1-2.7-6.2-4.9-14.2-13.6-14.4-15.5-.1-.8-.1-2.1.1-2.9.4-3.4-1.4-6.1-6.6-9.7-27.6-18.9-32.1-23.4-34.9-34.7l-1.9-7.8-10.1-9.7c-15.7-15.3-27.3-25-31.3-26.3-4.6-1.5-6.6-3.1-9.6-8.3-3.5-6-11.7-13.3-16.2-14.5-9-2.4-23.1-14.4-31.5-26.8-2.9-4.2-7.3-9-10.8-11.7-3.2-2.5-8.2-7.4-11-10.8-7-8.5-28.7-28.5-31.8-29.3-2.8-.7-12.9-8.9-13.7-11.2-.3-.8.1-2.8 1-4.5 1.4-2.7 1.4-3.1-.2-4.9-.9-1-2.5-1.9-3.6-1.9s-1.8-.7-1.8-2c0-1-1.6-3.2-3.6-4.7-7.6-6-14.4-13.1-15.9-16.6-1.2-2.9-2.1-3.7-4-3.7-2.8 0-3.5-2.7-1-3.6 4.3-1.7 2-8.6-3.6-10.8-2-.8-4-2-4.4-2.6-1-1.7-2.5-1.1-2.5 1 0 1.1.5 2.9 1.2 4 1.6 2.6.3 3.7-2 1.7-1-1-2.4-1.7-3-1.7-1.9 0-22.5-21.2-25.2-25.9-1.4-2.4-4.4-5.9-6.7-7.8-2.9-2.4-4.7-4.9-5.8-8.2-2.2-6.8-7.7-11.6-17.3-15.2-5.1-1.9-13.8-12.8-15.8-19.7-2-7-2.9-8.2-6.3-8.2-5.7-.1-10.8-3.8-26.1-19.2-8.5-8.6-18.2-17.7-21.5-20.3-3.3-2.6-8.6-6.7-11.7-9.3-3.2-2.5-7.1-6.6-8.8-9.1-3.8-5.9-13.9-14.8-18.8-16.5-7.1-2.5-16.1-7.6-17.2-9.7-2-3.7-.2-7.8 4.8-11.2 2.6-1.8 7.4-6 10.7-9.4 3.8-4 7.4-6.7 9.9-7.5 3.3-1.1 5.4-3.2 12.3-12.3 4.6-6.1 11.7-16 15.7-22.1 4.8-7.1 8.8-12 11.4-13.6 4.3-2.9 10.2-11 10.2-14.1 0-1 1.5-4.6 3.4-8 2.5-4.5 3.6-8 4.1-12.9.6-5.8 1.2-7.3 4.1-10.4 1.9-1.9 3.4-4.1 3.4-4.9 0-2.4 5.9-6.5 9.5-6.5 6.4 0 7.5 6 1.6 9.5-1.9 1.1-4.8 3.5-6.6 5.2-1.7 1.8-3.6 3.3-4.1 3.3-.6 0-1.8.6-2.8 1.3-1.7 1.3-1.7 1.5-.1 4.6 1.5 3.1 2 3.3 5.3 2.7 2-.3 4.8-1.5 6.2-2.6 1.4-1.1 4.3-3.3 6.5-4.8 5.5-3.7 14.2-10.7 18-14.5 1.8-1.8 5.4-4.8 8.1-6.7 6.6-4.7 17.3-15.6 18.5-18.9.9-2.2 4.2-7.5 11.9-19.1 1-1.4 2.8-4.6 4-7 1.3-2.5 3.8-6.5 5.6-8.9 1.9-2.4 3.4-4.9 3.4-5.6 0-.7.7-1.9 1.7-2.6.9-.8 3.1-3.7 5-6.4 1.8-2.8 5.6-7.7 8.3-11 2.8-3.3 6-7.5 7.2-9.3 3.8-6.1 10-6.3 11.4-.4 1 3.9 2.3 5.2 5.3 5.2 4 0 6-1.9 8.6-8.4 3.6-8.8 6.7-12.8 23-29.1 8.3-8.2 16.9-17.5 19.3-20.6 4.1-5.5 23.9-24.7 28.6-27.8 1.3-.9 4.3-2.9 6.7-4.5 8.9-5.8 55.6-55.3 64.8-68.7 1.3-2 4.5-4.6 7-6 3.8-2 5.4-3.8 9.3-10.4 2.5-4.4 4.9-9.4 5.3-11 .3-1.7 2.1-6.2 4-10 1.8-3.9 4.8-10.5 6.7-14.8 3.9-9.1 5.5-10 12.1-6.8 3.4 1.7 4.8 3.1 6.8 7.3 3.1 6.9 5 7.1 10.5 1.7 4.8-4.7 5.2-6.3 2.8-9.7-.9-1.4-1.4-3.3-1-4.7.6-2.4 8-8.3 13.8-11 1.8-.8 6-3.6 9.3-6.3l6-4.9.8-6.8c.4-3.8 1.2-7.4 1.7-8 .6-.7 3.3-1.5 6.1-1.7 6.4-.6 9.7-3.1 13.2-9.9 4.2-7.9 6.3-9.9 11-9.9 2.1 0 5.3-.7 7.1-1.5 5.1-2.4 20.6-19.1 28.2-30.3 7.2-10.8 7.5-11.2 12-20.6 5-10.4 6.5-13 9.8-18.1 1.8-2.8 4-6.2 5-7.8 1.9-3.1 4.3-3.4 10.6-1.2 2.3.8 5.2 1.5 6.5 1.5 4.7 0 9.8-9.4 12.5-23.2.9-4.5 7.4-21.2 10.6-27.3.9-1.7 3.2-5.9 5.1-9.5 1.9-3.6 4.3-7.4 5.2-8.5 1-1.1 2.6-3.5 3.7-5.3 1-1.7 2.1-3.2 2.4-3.2.8 0 10.6-8 14.1-11.4 1.5-1.4 2.9-2.6 3.3-2.6 1.1 0 .6 4.2-.8 6.8-.8 1.5-2.9 5.8-4.8 9.6-1.8 3.8-4 8.2-4.8 9.9-4 7.9-14.6 28.7-16.7 32.8-2.9 5.6-2.3 7.9 2.1 7.9 2.3 0 4.1-.9 6.1-3 1.6-1.7 4.6-3.5 6.6-4 2.4-.7 6.2-3.5 11.2-8.3 4.1-3.9 8.7-8 10.1-9 1.8-1.2 2.6-2.7 2.6-4.7 0-2.6-.4-3-2.9-3-3.2 0-4.5 1.2-5.5 5.3-.5 2.2-1.2 2.8-2.9 2.5-3.1-.4-3.6-6.1-.9-9.7 1.1-1.5 2.9-4.6 4.1-6.9 3.1-6 12.5-18.7 22.5-30.5 5.2-6 7.1-6.7 11.1-4.1 4.4 2.9 11 .2 14.1-5.9.8-1.5 3.4-3.9 5.7-5.3 5.9-3.7 12.2-9.9 16.7-16.5 4.7-6.8 18.1-19.5 23-21.7 5.2-2.4 14-10.1 14-12.2 0-1.9-1.9-2.7-10.7-4.5-4.1-.8-7.5-3.5-10.4-8.2l-2.2-3.6 2.2-4.2c1.5-2.9 4.4-5.7 9-8.9 3.7-2.5 7.3-4.6 8-4.6.6 0 3.3-1.9 5.9-4.3 2.6-2.3 6.5-5.5 8.7-7 2.2-1.5 4.9-3.3 6-4.1 3.8-2.7 6.3-2.8 8.6-.5 1.8 1.8 2 2.9 1.5 6.5-.5 4-.4 4.4 1.5 4.4 2.7 0 14.9-9 18.3-13.5 1.5-1.9 3.2-4.8 3.9-6.3 2.2-5.3 10-14.7 17.6-21.3 8.1-7.1 7.9-6.6 13.2-24.5 1-3.2 9.5-17.1 12.6-20.6 1-1.1 3.8-2.9 6.3-4s7.7-5.1 11.6-8.9c8.3-8 11.8-8.9 15.7-4.3 6.1 7.4 19.4 22.2 29 32.4 5.9 6.3 12.1 13.7 13.7 16.5 1.6 2.7 4.2 6.3 5.9 7.9 2.8 2.7 3.8 3 10 3 5.7.1 7.4.5 9.3 2.3 1.3 1.1 4.3 3 6.8 4.2 2.5 1.1 5.7 3.2 7.1 4.5 1.4 1.3 3.9 3.1 5.5 3.9 1.6.8 4.5 3 6.5 4.9 2 1.8 6.2 5.3 9.5 7.8 8.6 6.6 15.2 13.9 17.6 19.2 1.5 3.4 4.4 6.8 11.2 12.7 9.6 8.4 20.7 16.6 26.6 19.6 5 2.6 8.9 5.7 20.4 16.8 9.7 9.3 15 16.5 13.9 19.2-.2.7-2.7 2.2-5.4 3.3-2.7 1.2-4.9 2.7-4.9 3.5 0 .7 6.6 8 14.6 16.3 8.1 8.2 18.6 19.5 23.6 25.1 4.9 5.6 9.9 10.8 11.2 11.6 1.3.9 4.6 1.5 8.2 1.5 4.7 0 7.3.7 12.4 3.3 3.6 1.7 8.1 4.6 10.1 6.3 2 1.7 6.5 5.3 9.9 8.1 11.5 9.2 20.2 19.3 21.6 25.1.8 3.5 7.6 13.4 10.3 15.1 1.1.7 5.6 1.5 10.1 1.9 7.5.6 8.2.9 9.5 3.4 1.3 2.6 3.3 4 5.6 4 .5 0 .9-1.1.9-2.5 0-1.8-.9-3.1-3-4.3-1.6-.9-3.5-3-4.2-4.6-.6-1.6-3.2-4.4-5.8-6.2-4.8-3.5-12.5-11.9-17.4-19.2-1.6-2.3-3.2-4.2-3.7-4.2-.4 0-1.7-1.7-3-3.8-5.4-9.1-15.8-17-24.1-18.3-3.8-.6-5.9-1.7-8.3-4.1-4.5-4.6-11.7-10.6-15.2-12.7-1.6-1-5.9-5.5-9.6-9.9-3.7-4.5-7.6-8.6-8.6-9.2-2.4-1.2-6.1-7.1-6.1-9.6 0-3.5-5.1-12.8-9.8-18-2.6-2.9-6.7-7.8-9.2-11.1-5.3-6.8-23.7-25.2-29.1-29.1-9.1-6.5-28.4-23.6-40.2-35.8-7-7.2-19.5-19.1-27.7-26.4-8.3-7.4-15-13.8-15-14.3s-5.6-6.4-12.4-13c-7.8-7.7-13.5-14.3-15.6-18-2.1-3.8-5.5-7.6-9.4-10.8-20.1-16.3-41.5-37.8-44.7-44.9-.9-2.1-2.2-4.1-2.8-4.5-1.7-1-6.1-8.2-6.1-10 0-1.1-1.1-1.5-4.5-1.5-3.7 0-4.5.3-4.5 1.8Z" style="fill:#000;stroke:none;stroke-width:.1"/><path d="M969 120.8c0 1.8 2 3.2 7.1 5.1 2.4.9 2.6.7 2.2-1-1.2-4.4-9.3-8-9.3-4.1zM1062.2 200.6c.4 2 3.4 4.1 4.5 3.1 1-1.1-1.1-4.1-3.1-4.5-1.2-.3-1.7.2-1.4 1.4zM679 285.2c0 1.9.2 2 1 .8 1.3-1.9 1.3-3 0-3-.5 0-1 1-1 2.2zM592 366c-4.1 4.1-3.8 10 .4 10 2.6 0 4.1-1.9 5.6-7 1.4-4.8-2.4-6.6-6-3zM1257.7 394.7c-1.5 1.4-.5 4.3 2.1 6.1 1.5 1.1 3.4 3.1 4.1 4.5.7 1.4 2.4 3 3.6 3.5 1.3.6 3.8 2.5 5.7 4.2 1.8 1.7 6 5.4 9.3 8.2 3.3 2.9 6.7 6.3 7.6 7.8 2.1 3.4 8.3 8 10.8 8 2.7 0 3.3-1.2 4.7-9.4 1-6.2 1-7.5-.6-11.1-2-4.7-4.2-6-7.2-4.4-1.4.8-1.8 1.7-1.4 3.4 1.4 5.7-3.2 7.7-5.9 2.5-.9-1.7-2.7-3.6-4-4.2-1.4-.6-2.5-1.5-2.5-2 0-1.9-9.3-10.7-12-11.3-1.6-.4-4.6-2-6.6-3.6-3.6-2.8-6.3-3.6-7.7-2.2zM1344.5 461.6c-3.6 3.6.6 9.8 8.3 12.3 3.3 1.1 4.4 1.2 5.7.1 3.1-2.6 1.4-7.7-3.7-10.8-5-3-8.4-3.5-10.3-1.6zM1401.7 496.6c-.4.4-.7 1.6-.7 2.6 0 2 2.5 2.5 3.6.7.8-1.3-1.9-4.3-2.9-3.3zM432.7 512.5c-2.4 2.4-.1 10.5 3 10.5 2.1 0 7.3-5.8 7.3-8.1 0-3.4-7.6-5.2-10.3-2.4z" style="fill:#000;stroke:none;stroke-width:.1"/><path d="M1030.4 648.5c-3 2-4.7 6.8-4.2 11.2.6 4.6-4 18.4-8.1 24.6-1.6 2.3-4.7 7.1-6.9 10.7-4.6 7.1-10 15-14.7 21.4-5.3 7.1-8.6 8.2-29.1 10.5-4.4.5-10.5 1.6-13.5 2.4-3 .9-9.9 1.9-15.4 2.2-5.5.4-12.9 1.3-16.5 2.1-3.6.7-10.8 1.4-16.1 1.4-6.1 0-12.3.7-17 1.9-4.1 1-11.7 2.4-16.9 3-10.4 1.3-15.4 2.4-21.5 4.7-2.2.9-7.6 2.2-12 2.9-4.4.8-12 2.1-17 3-4.9.9-14.8 2-22 2.5-7.1.5-14.6 1.3-16.5 1.9-1.9.7-10 1.6-18 2.2-18.6 1.3-20.9 1.8-23.4 5.2-1.6 2.2-2.1 4.5-2.3 12.1-.2 8.2 0 9.8 1.8 12 2.4 3 7.8 6 12.9 7.1 1.9.4 6 1.9 9 3.4 5.4 2.7 5.7 2.7 25 2.5 13.2-.2 22.2-.8 28-1.9 4.7-.9 10.7-2 13.3-2.6 2.6-.5 6.6-.9 8.8-.9 6 0 14.1-4.1 16.3-8.1 1-1.9 2.9-4.2 4.3-5.3 3.4-2.5 14.2-4.6 24.3-4.6 7.3-.1 9.1-.4 12.5-2.5 3.3-2 5.3-2.5 11.1-2.5 4 0 9.1-.7 11.5-1.6 2.4-.9 7.9-2 12.2-2.5 4.8-.6 9.3-1.8 11.6-3.1 4.6-2.6 8.8-1.9 9.7 1.7.6 2.5-3.6 9.6-12.7 21-2.1 2.7-6.1 8.1-8.7 11.8-2.6 3.7-6.3 9-8.2 11.6-10.7 14.8-12.8 17.8-15.6 22.4-1.7 2.7-3.8 5.5-4.6 6.1-.8.6-4.5 5.5-8.2 10.8-3.7 5.4-7.2 10-7.7 10.3-.5.4-1.8 2.3-2.9 4.3-1 2-3.1 5-4.5 6.7-2.8 3.1-9.6 12.4-13 17.9-1.1 1.7-4 5.8-6.5 9s-7.3 10-10.8 15c-3.4 5-7 10-8 11.1-2.2 2.5-18.1 25.1-35.2 49.9-2 3-14.2 21.4-15.9 23.9-.8 1.2-3.3 5.1-5.6 8.7-3.8 6-16.6 26.2-21.1 33.6-10.2 16.5-20.3 31.7-23.7 35.3-1.7 1.8-5 4.2-7.3 5.2-5.1 2.1-10.4 8.8-10.4 13 0 1.6-.7 4.6-1.6 6.8-2 5.2-6.3 6.9-19.1 7.6-14.1.8-39.6 4.3-48.3 6.5-4.1 1.1-10.9 2.4-15 2.9-10.3 1.4-20.8 3.7-25.2 5.5-2.1.9-5 1.6-6.5 1.6-1.6 0-8 1.4-14.3 3.1-6.3 1.6-15.1 3.8-19.5 4.9-9.9 2.3-17.7 4.4-23.5 6.4-2.5.9-5.2 1.6-6 1.6-.8 0-5.5 1.2-10.3 2.7-8.6 2.6-8.9 2.6-14.1 1-6.9-2.2-9.8-2.1-12.8.3-6.3 4.9-2.8 20 4.7 20 1.3 0 6.2 2.9 11.7 7.1 8.2 6.2 9.7 7 12.8 6.6 1.9-.2 7.5.2 12.5 1 6.3 1 12.5 1.2 21.3.7 12.3-.7 12.4-.7 16.5-4.2 3.9-3.3 14.4-8.8 17.7-9.3.8-.1 4.6.1 8.3.5 5.5.7 7.1.6 8.5-.7 1-.9 4.2-2.8 7.2-4.2 3-1.4 6.6-3.5 8-4.5 2.3-1.9 18.4-9 20.2-9 .5 0 4.8-1.5 9.6-3.4 5.9-2.3 13.9-4.3 23.8-6 8.2-1.3 16.3-3 17.9-3.6 3.2-1.3 12.6-2.7 24.1-3.7 7-.5 7.2-.5 8.9 2.1 1.7 2.6 1.7 2.8-.2 5.4-1.1 1.5-3.4 3.1-5.2 3.6-3.7 1.1-3.7 1.4-1.1 5.9 1.9 3.2 1.9 3.6.5 5.1-.9.9-2.6 1.6-3.8 1.7-7.7.1-11.6.7-14.2 2-6.9 3.3-.8 6.3 11.6 5.7 5.4-.3 7.5-.9 10.9-3.3 3.3-2.3 5.6-3 10.7-3.3 7.4-.5 9.3-2.3 9.1-8.5-.1-2.1.5-4.4 1.3-5.2.8-.8 4.7-2.1 8.8-2.8 4-.8 7.7-2.1 8.2-2.8 1.8-2.8.9-4.7-2.6-5.9-3-1-3.5-1.6-3.5-4.1 0-7.6 9.6-18.2 19.8-21.9 5.3-1.9 7.2-2.1 12.5-1.5 7.6.9 14.2.9 18.4 0 2.6-.6 3.8-.2 6.2 1.8 1.7 1.4 5 2.8 7.3 3.2 7 1.2 10.6 3.3 11.8 7.1 1.8 5.4.1 6.7-7.5 5.9-5.5-.5-6.7-.3-11.5 2.2-4.9 2.6-6.5 2.8-18 3.1-14.9.3-16.3.6-12.9 2.9 1.3.9 4.3 3.4 6.7 5.6 2.9 2.6 4.9 3.7 6 3.2 7-2.7 10.4-2.9 18.6-1.2 12.9 2.6 28.6 2.3 38.3-.8 4.3-1.4 8.6-2.5 9.6-2.5s3.5-.9 5.7-2c2.6-1.3 6.8-2.2 12.7-2.6 10.3-.6 18.7-1.9 26-4 4.3-1.3 7.9-1.3 22-.5 9.2.6 18.4 1.5 20.3 2 1.9.6 9.6 1.7 17 2.6 27.3 3.2 34.6 4.3 38.6 5.9 4.6 1.9 14.5 1.8 15.1-.1.5-1.4-11.8-8.2-20.9-11.6-3.6-1.4-7.7-3.2-9-4-1.3-.8-4.8-2-7.8-2.7-3-.7-7-1.9-8.7-2.7-4.6-1.9-13.5-4.2-22.3-5.8-4.1-.7-10.8-2.3-14.9-3.5-6.9-2.1-7.6-2.1-11.5-.6-6.3 2.4-9 2.2-29.6-2.4-2.5-.6-8-1.5-12.3-2-4.3-.5-8.3-1.3-9-1.7-.6-.3-5.4-.8-10.6-.9-12.2-.3-29.4-2-34.6-3.4-2.2-.6-10.1-1.3-17.5-1.6-9.9-.4-15-1.1-19.1-2.6l-5.7-2-4.2 2.2c-4.6 2.3-13.3 3.7-17.3 2.6-3.9-1-4.3-4-1-8.4 5.4-7.1 10.3-14.9 10.3-16.3 0-.8 1.5-3 3.4-4.8 2.9-2.9 5.7-6.7 15.3-21.3 1.4-2 3.5-6.6 4.7-10.3 1.5-4.5 4.2-9.2 7.9-13.9 10.6-13.5 12.6-16.5 18.3-28.1 3.6-7.4 6.7-12.4 8.5-13.8 1.6-1.1 4.8-5 7.1-8.5s5.6-7.5 7.4-8.8c1.8-1.4 4-4.3 4.9-6.6.9-2.2 4.1-7.3 7.1-11.2 3.1-3.9 6.7-9.2 8-11.8 1.3-2.5 2.8-4.9 3.4-5.3.6-.3 1.9-2.4 3-4.5 1.1-2.2 5.1-7.4 9-11.7 5.8-6.4 7.4-9 9.2-14.8 1.2-3.9 3-8.1 3.9-9.5 5.3-8.3 9.2-14 11.8-17.5 1.7-2.2 4.3-5.8 5.7-8 1.5-2.2 4.1-5.6 5.8-7.6 4.1-4.7 9.7-12.6 11.6-16.4 2.7-5.5 12-16.4 18.3-21.4 10.3-8.2 14.7-13.3 15.4-17.6.4-2.5 2.8-7 6.3-12 3.2-4.4 6.5-9.6 7.5-11.5 2.1-4.1 6.1-9.4 13-17.2 2.7-3.1 6.1-7 7.3-8.7 3.6-4.8 6.6-5.8 19.7-6.5 10.4-.6 12.6-1.1 16.5-3.3 3.9-2.3 6-2.7 16.5-3.3 10.5-.5 12.9-1 19-3.7 8.5-3.8 11.2-4.2 29.6-4.8 12.9-.3 15-.7 19.9-2.9 5.8-2.7 11.6-3.2 18.5-1.6 2.7.6 6.1.5 11-.5 3.8-.8 13.8-1.9 22-2.5 28.3-2.2 29.7-2.4 34.2-5.4 5.6-3.7 8.5-4 31.6-2.7 17.5 1 20.6.9 26-.5 3.8-1 9.7-1.6 15.1-1.5 9.8.1 13.2-1 11.7-3.7-.8-1.4-2.9-1.8-11.3-2.1-20.8-.7-53.5-.3-61.3.8-4.4.6-12.3 1.6-17.5 2.1-5.2.5-13.1 1.6-17.5 2.6-6.1 1.2-14.4 1.7-35.6 1.9-23.3.2-28 .5-30.7 1.9-2.5 1.3-5.5 1.6-13 1.4-10.8-.3-41.8.8-43 1.6-1.8 1.1-28.7 3.7-32.3 3.1-6.1-1.1-6.7-3.4-3.4-13.5 1.5-4.4 2.5-9 2.2-10.2-.9-3.1 1-6.7 5.6-10.9 3.7-3.4 4.1-4.3 4.1-8.1-.2-10.5-3.5-21.6-7.3-24.5-2.2-1.7-7.2-1.6-9.7.2zm-226.5 367.2c1.2 2.5-2.4 11.9-5.3 13.9-1.3.8-3.1 3.2-4.1 5.4-3.2 7-9.5 6.2-9.5-1.2 0-1.8 1.2-4.2 3.4-6.6 1.9-2.1 3.8-5 4.1-6.4 1.5-5.9 9.1-9.3 11.4-5.1zm-20.9 33.2c0 .5-1.4 3.5-3 6.7-3 5.7-4.5 8.1-10.7 16.9-1.5 2.2-4.4 6.9-6.4 10.5-4.2 7.5-8.6 11-13.8 11-4.1 0-6.1-1.4-6.1-4.2 0-2.8 3.6-9.4 7.5-13.7 1.9-2.1 3.8-5.4 4.1-7.2 1.1-5.4 2.2-6.9 7.2-9 2.6-1.1 5.9-3.2 7.5-4.7 4.6-4.4 13.7-8.6 13.7-6.3z" style="fill:#e08800;stroke:none;stroke-width:.1;fill-opacity:1"/><path d="M1552 655.4c0 1.7 2.7 2.9 3.5 1.6.4-.6.3-1.5 0-2-.9-1.5-3.5-1.2-3.5.4zM779.2 1128.2c-2.6 2.6-1.4 4.1 2.8 3.5 4.3-.6 7.3-2.4 6.4-3.8-.8-1.3-7.8-1.1-9.2.3zM691.5 1151c-1.1 1.8 1 3.2 4.1 2.8 4-.4 3.8-3.2-.3-3.6-1.7-.2-3.4.2-3.8.8zM717.3 1590.7c-2.1.7-1.5 3.3.7 3.3 1.1 0 2-.6 2-1.4 0-1.8-1.1-2.5-2.7-1.9z" style="fill:#000;stroke:none;stroke-width:.1"/></svg>