<?xml version="1.0" standalone="no"?>
<!DOCTYPE svg PUBLIC "-//W3C//DTD SVG 20010904//EN"
 "http://www.w3.org/TR/2001/REC-SVG-20010904/DTD/svg10.dtd">
<svg version="1.0" xmlns="http://www.w3.org/2000/svg"
 width="700.000000pt" height="700.000000pt" viewBox="0 0 700.000000 700.000000"
 preserveAspectRatio="xMidYMid meet">
<metadata>
Created by potrace 1.14, written by Peter Selinger 2001-2017
</metadata>
<g transform="translate(0.000000,700.000000) scale(0.100000,-0.100000)"
fill="#000000" stroke="none">
<path d="M3393 6913 c-50 -49 -149 -143 -220 -211 -70 -67 -139 -138 -153
-158 -14 -20 -54 -70 -90 -112 -36 -43 -72 -90 -80 -105 -14 -29 -144 -152
-236 -225 -29 -22 -73 -67 -100 -99 -76 -92 -286 -298 -319 -314 -20 -9 -31
-24 -36 -45 -3 -19 -24 -47 -55 -75 -77 -69 -106 -101 -167 -182 -54 -71 -140
-157 -158 -157 -5 0 -9 -5 -9 -10 0 -24 -46 -79 -71 -84 -15 -3 -40 -24 -62
-52 -44 -57 -161 -180 -204 -214 -34 -28 -376 -355 -492 -471 -42 -41 -94 -88
-116 -104 -22 -17 -73 -61 -112 -100 -40 -38 -89 -84 -109 -100 -26 -22 -36
-40 -39 -65 -3 -37 -61 -103 -157 -180 -23 -19 -63 -57 -87 -85 -24 -27 -88
-96 -141 -152 -54 -56 -100 -111 -103 -123 -4 -17 11 -41 66 -103 96 -111 185
-197 202 -197 8 0 29 -19 47 -42 18 -22 58 -69 90 -102 52 -56 108 -144 108
-170 1 -30 40 -61 83 -65 4 -1 7 -10 7 -21 0 -25 51 -82 115 -130 27 -20 65
-52 84 -69 19 -18 47 -39 61 -46 15 -8 47 -38 71 -67 59 -73 138 -150 240
-236 48 -40 99 -88 114 -108 27 -35 66 -73 153 -150 24 -21 56 -56 72 -78 16
-23 74 -86 130 -141 233 -228 309 -303 361 -350 30 -27 81 -81 114 -120 33
-38 111 -123 175 -189 63 -65 120 -123 125 -130 138 -156 207 -222 267 -257
38 -22 77 -39 86 -37 31 5 72 -29 72 -60 0 -31 95 -146 276 -332 111 -114 166
-172 232 -244 23 -25 51 -46 62 -46 24 0 259 234 272 271 5 16 25 38 43 49 18
11 80 66 137 123 56 56 120 115 141 131 21 16 48 48 59 70 12 24 107 127 233
251 227 225 319 325 342 373 9 18 25 32 41 35 32 7 180 133 237 202 22 27 46
54 54 59 8 6 75 70 150 141 75 72 167 160 204 195 38 36 79 83 92 105 14 22
38 46 56 54 17 7 45 34 63 58 17 25 187 201 377 392 343 344 376 375 498 481
34 30 72 73 83 95 11 21 32 48 47 59 45 33 191 188 191 202 0 34 -126 -10
-186 -66 -24 -22 -47 -40 -52 -40 -4 0 -53 -45 -107 -101 -170 -171 -284 -279
-487 -461 -20 -18 -41 -42 -45 -53 -9 -23 -267 -275 -281 -275 -5 0 -29 -25
-52 -56 -25 -33 -56 -62 -77 -70 -19 -8 -53 -36 -76 -61 -39 -43 -152 -163
-272 -288 -27 -29 -80 -83 -116 -121 -37 -38 -77 -85 -91 -105 -34 -51 -286
-300 -331 -328 -34 -21 -97 -98 -97 -119 0 -4 -14 -24 -31 -43 -17 -19 -42
-49 -56 -66 -18 -23 -34 -33 -53 -33 -37 0 -170 -137 -170 -175 0 -37 -61 -98
-151 -152 -108 -64 -279 -237 -274 -275 5 -29 -56 -86 -115 -109 -30 -11 -68
-35 -85 -53 -39 -41 -120 -106 -134 -106 -5 0 -19 19 -29 42 -24 54 -161 195
-223 231 -26 14 -65 49 -88 75 -22 27 -55 55 -71 62 -21 9 -39 29 -55 59 -21
43 -144 172 -152 161 -2 -3 -17 4 -33 15 -31 21 -46 48 -41 77 1 11 -15 29
-46 50 -59 40 -153 129 -153 144 0 29 -129 170 -264 289 -44 39 -87 77 -95 86
-9 9 -61 63 -117 120 -55 57 -109 117 -119 132 -12 19 -24 27 -36 24 -22 -6
-89 51 -89 76 0 9 -31 41 -70 72 -62 49 -104 101 -99 121 3 12 -104 113 -149
142 -23 15 -44 34 -47 43 -3 8 -24 26 -47 40 -23 13 -108 90 -188 172 -81 81
-152 147 -158 147 -17 0 -51 41 -46 55 3 7 -21 40 -54 73 -38 39 -58 68 -58
82 1 15 -7 25 -23 31 -19 8 -22 6 -17 -6 4 -13 2 -14 -14 -5 -22 12 -130 132
-147 163 -6 12 -31 36 -55 53 -23 17 -53 49 -66 72 -13 23 -30 42 -38 42 -14
0 -101 76 -238 208 -32 31 -79 68 -105 82 -25 14 -47 32 -49 41 -1 8 26 38 64
69 37 30 91 89 120 130 29 41 64 85 77 97 14 13 34 54 47 92 22 71 50 111 75
111 28 0 24 -18 -10 -44 -38 -29 -46 -56 -17 -56 9 0 57 33 106 72 69 55 100
89 135 146 53 85 159 233 175 244 6 5 17 -1 25 -12 20 -30 38 -24 61 20 19 37
200 226 340 355 81 74 280 291 280 305 0 5 14 39 31 75 34 73 55 82 87 38 19
-27 21 -27 40 -10 12 11 17 26 15 41 -4 20 5 30 51 61 40 26 56 43 56 59 0 27
18 46 42 46 11 0 28 15 39 35 14 23 29 35 42 35 24 0 134 109 158 156 8 16 30
58 49 93 34 63 34 63 72 58 44 -6 45 -5 78 93 32 96 79 177 124 216 21 18 41
32 43 30 2 -2 -23 -58 -56 -124 -46 -91 -57 -121 -46 -125 7 -3 19 1 25 9 7 8
18 14 24 14 16 0 96 73 96 88 0 17 -19 15 -26 -3 -8 -21 -24 -19 -24 3 1 17
41 79 94 145 24 30 34 35 56 31 23 -5 39 7 127 93 55 54 112 106 126 116 35
23 34 32 -4 43 -18 5 -38 19 -46 31 -13 20 -13 24 9 43 30 28 144 110 152 110
4 0 11 -11 16 -25 8 -22 13 -24 30 -15 11 6 32 27 47 47 16 20 47 58 71 83 23
26 50 69 59 96 16 47 69 109 135 155 l30 21 50 -53 c27 -30 75 -84 105 -121
49 -61 68 -74 96 -69 11 2 114 -67 156 -104 38 -33 47 -42 93 -99 18 -21 67
-63 110 -93 73 -51 148 -125 148 -146 0 -5 -9 -11 -20 -14 -12 -3 -20 -9 -18
-13 2 -5 45 -54 97 -109 69 -75 100 -101 118 -101 54 0 161 -82 208 -160 36
-59 50 -70 87 -70 12 0 26 -7 33 -17 7 -9 15 -12 18 -6 3 5 -7 22 -23 39 -17
16 -59 63 -94 106 -46 54 -76 80 -102 88 -48 16 -172 134 -194 185 -27 61
-124 169 -226 251 -41 33 -359 347 -405 399 -15 17 -61 62 -102 102 -42 40
-86 90 -99 113 -13 22 -28 40 -33 40 -6 0 -52 -39 -102 -87z"/>
<path d="M3770 6530 c20 -13 33 -13 25 0 -3 6 -14 10 -23 10 -15 0 -15 -2 -2
-10z"/>
<path d="M2313 5585 c-3 -9 -3 -18 0 -21 9 -9 27 6 27 22 0 19 -19 18 -27 -1z"/>
<path d="M4870 5481 c0 -10 160 -161 172 -161 4 0 8 6 9 13 0 6 2 21 4 32 3
11 2 28 -1 38 -7 21 -34 23 -34 2 0 -21 -14 -19 -36 6 -23 26 -94 79 -106 79
-4 0 -8 -4 -8 -9z"/>
<path d="M5200 5221 c0 -14 29 -41 44 -41 23 0 26 13 9 32 -17 19 -53 25 -53
9z"/>
<path d="M1706 5031 c-4 -5 -3 -17 0 -26 6 -15 8 -14 25 1 15 14 17 19 7 26
-17 10 -26 10 -32 -1z"/>
<path d="M3995 4500 c-10 -11 -15 -20 -12 -20 3 0 -1 -23 -9 -51 -14 -45 -101
-184 -127 -201 -12 -7 -186 -34 -312 -48 -103 -11 -143 -17 -200 -31 -96 -24
-125 -29 -280 -45 -38 -5 -73 -9 -77 -10 -5 -1 -20 -2 -35 -3 -43 -2 -56 -16
-59 -60 -2 -47 10 -60 79 -85 38 -14 66 -17 135 -12 138 8 232 31 232 56 0 10
50 27 105 34 22 3 76 12 120 21 138 27 145 28 145 18 0 -9 -56 -88 -376 -533
-153 -211 -238 -338 -357 -526 -42 -67 -92 -133 -111 -148 -19 -14 -40 -42
-46 -61 -6 -19 -15 -35 -18 -36 -4 0 -14 -2 -22 -3 -8 -2 -43 -6 -78 -10 -34
-4 -86 -11 -115 -17 -29 -5 -68 -12 -87 -15 -19 -3 -125 -28 -235 -55 -124
-31 -212 -49 -232 -45 -20 3 -36 -1 -43 -10 -16 -18 -4 -63 18 -71 9 -4 33
-17 52 -30 28 -18 55 -24 117 -28 75 -4 86 -2 135 24 30 16 63 27 77 24 15 -2
51 10 90 31 71 37 173 71 242 81 24 4 46 8 49 10 4 2 32 6 63 9 44 5 57 3 57
-8 0 -7 -7 -19 -15 -26 -9 -7 -13 -21 -10 -31 5 -14 1 -19 -14 -20 -12 -1 -25
-3 -31 -4 -5 -1 -14 -3 -20 -4 -5 0 -10 -5 -10 -11 0 -13 75 -13 98 -1 9 6 29
12 45 16 18 4 27 12 27 25 0 14 12 25 41 37 38 15 40 18 24 29 -25 18 -13 54
27 84 27 20 44 24 98 23 74 -1 143 -23 148 -47 2 -9 -2 -16 -10 -17 -24 -1
-53 -7 -83 -16 -16 -5 -43 -9 -58 -8 -34 2 -42 -8 -21 -26 22 -18 224 -22 274
-4 43 15 187 39 235 39 17 0 59 -4 95 -8 61 -6 84 -9 155 -21 98 -16 128 -18
121 -7 -23 38 -311 126 -366 112 -14 -4 -39 -3 -56 2 -17 4 -44 10 -60 12 -16
2 -47 7 -69 10 -22 3 -69 8 -105 11 -36 3 -83 8 -105 11 -22 3 -78 6 -125 6
-47 0 -88 2 -92 5 -9 5 34 75 68 113 13 14 36 50 51 80 15 31 49 87 76 127 26
39 47 74 47 78 0 7 63 89 80 105 3 3 23 32 44 65 22 33 56 83 77 110 20 28 46
70 58 95 11 25 45 77 73 115 29 39 61 84 72 100 10 17 40 50 66 75 26 25 62
72 80 105 18 33 53 85 78 115 25 30 46 56 47 57 0 1 24 4 53 8 29 3 64 10 78
15 14 6 41 10 59 10 19 0 52 7 72 15 21 8 71 16 111 19 40 3 76 7 81 10 4 3
47 8 96 10 134 8 208 17 229 28 10 6 83 11 162 13 142 3 200 14 139 25 -57 11
-280 1 -370 -16 -16 -3 -77 -7 -135 -10 -159 -6 -422 -23 -448 -28 -29 -6 -51
2 -48 17 2 7 6 30 11 52 4 22 16 50 26 63 20 26 17 70 -7 110 -18 27 -26 28
-49 2z m-865 -1405 c0 -22 -43 -85 -57 -85 -18 0 -16 26 4 58 27 42 53 55 53
27z m-91 -147 c-28 -53 -89 -136 -105 -142 -26 -10 -40 9 -26 36 28 53 49 82
67 92 10 6 25 17 33 24 7 6 20 12 28 12 12 0 13 -4 3 -22z"/>
<path d="M3034 2668 c-3 -4 4 -8 15 -8 12 0 21 4 21 8 0 5 -7 9 -15 9 -9 0
-18 -4 -21 -9z"/>
<path d="M2700 2580 c0 -6 7 -10 15 -10 8 0 15 2 15 4 0 2 -7 6 -15 10 -8 3
-15 1 -15 -4z"/>
</g>
</svg>
